<svg width="143" height="38" viewBox="0 0 143 38" fill="none" xmlns="http://www.w3.org/2000/svg">
<g clip-path="url(#clip0_1149_993)">
<path d="M19 11.207C23.2966 11.207 26.793 14.7034 26.793 19C26.793 23.2966 23.2966 26.793 19 26.793C14.7034 26.793 11.207 23.2966 11.207 19C11.207 14.7034 14.7034 11.207 19 11.207ZM15.7776 19.4979L18.0041 23.9511C18.2777 24.4966 18.9423 24.7249 19.4979 24.449C20.048 24.1739 20.2709 23.5053 19.9959 22.9552L18.5749 20.1133H21.2266C21.6125 20.1133 21.9702 19.9133 22.1735 19.5849C22.3768 19.2566 22.3953 18.8467 22.2224 18.5021L19.9959 14.0489C19.7208 13.4988 19.0511 13.2781 18.5021 13.551C17.952 13.8261 17.7291 14.4947 18.0041 15.0448L19.4251 17.8867H16.7734C16.3875 17.8867 16.0298 18.0867 15.8265 18.4151C15.6232 18.7434 15.6047 19.1533 15.7776 19.4979Z" fill="url(#paint0_linear_1149_993)"/>
<path d="M0.761039 15.7178L5.34167 14.2153C5.51779 13.7119 5.72434 13.214 5.96029 12.7269L3.83481 8.47704C3.62061 8.04873 3.70433 7.5312 4.04359 7.19202L7.19209 4.04351C7.53127 3.70322 8.04665 3.62165 8.47712 3.83473L12.727 5.96021C13.2141 5.72427 13.7119 5.51772 14.2153 5.3416L15.7178 0.760965C15.8689 0.306598 16.294 0 16.7734 0H21.2266C21.706 0 22.1311 0.306598 22.2822 0.761039L23.7847 5.34167C24.2881 5.51779 24.786 5.72434 25.2731 5.96029L29.523 3.83481C29.9513 3.61957 30.4688 3.70218 30.808 4.04359L33.9565 7.19202C34.2957 7.5312 34.3794 8.04873 34.1653 8.47704L32.0398 12.7269C32.2757 13.214 32.4823 13.7118 32.6584 14.2153L37.239 15.7178C37.6934 15.8689 38 16.294 38 16.7734V21.2266C38 21.706 37.6934 22.1311 37.239 22.2822L32.6583 23.7847C32.4822 24.2881 32.2757 24.786 32.0397 25.2731L34.1652 29.523C34.3794 29.9513 34.2957 30.4688 33.9564 30.808L30.8079 33.9565C30.4665 34.2979 29.949 34.3827 29.5229 34.1653L25.273 32.0398C24.7859 32.2757 24.2881 32.4823 23.7847 32.6584L22.2822 37.239C22.1311 37.6934 21.706 38 21.2266 38H16.7734C16.294 38 15.8689 37.6934 15.7178 37.239L14.2153 32.6583C13.7119 32.4822 13.214 32.2757 12.7269 32.0397L8.47704 34.1652C8.04873 34.3794 7.53335 34.2957 7.19202 33.9564L4.04351 30.8079C3.70433 30.4687 3.62061 29.9512 3.83473 29.5229L5.96021 25.273C5.72427 24.7859 5.51772 24.2881 5.3416 23.7847L0.760964 22.2822C0.306597 22.1311 0 21.706 0 21.2266V16.7734C0 16.294 0.306597 15.8689 0.761039 15.7178ZM19 29.0195C24.5251 29.0195 29.0195 24.5251 29.0195 19C29.0195 13.4749 24.5251 8.98047 19 8.98047C13.4749 8.98047 8.98047 13.4749 8.98047 19C8.98047 24.5251 13.4749 29.0195 19 29.0195Z" fill="url(#paint1_linear_1149_993)"/>
</g>
<path d="M45.1 10.54H56.552V13.144H48.292V18.884H54.732V21.488H48.292V30H45.1V10.54ZM59.3142 30V14.572H62.5062V30H59.3142ZM60.9382 12.528C60.2662 12.528 59.6968 12.3133 59.2302 11.884C58.7635 11.4547 58.5302 10.9227 58.5302 10.288C58.5302 9.65333 58.7635 9.12133 59.2302 8.692C59.6968 8.244 60.2662 8.02 60.9382 8.02C61.5915 8.02 62.1515 8.244 62.6182 8.692C63.1035 9.12133 63.3462 9.65333 63.3462 10.288C63.3462 10.9227 63.1035 11.4547 62.6182 11.884C62.1515 12.3133 61.5915 12.528 60.9382 12.528ZM64.7591 14.572H68.3711L78.1711 30H74.5591L64.7591 14.572ZM71.8711 23.7L68.0911 30H64.7591L70.4991 21.236L71.8711 23.7ZM71.0591 20.844L74.8391 14.572H78.1711L72.4591 23.308L71.0591 20.844ZM86.4317 30.196C85.0877 30.196 83.8651 29.8693 82.7637 29.216C81.6811 28.544 80.8131 27.62 80.1597 26.444C79.5251 25.2493 79.2077 23.8587 79.2077 22.272C79.2077 20.6853 79.5251 19.304 80.1597 18.128C80.8131 16.9333 81.6811 16.0093 82.7637 15.356C83.8651 14.7027 85.0877 14.376 86.4317 14.376C87.7011 14.376 88.8117 14.6933 89.7637 15.328C90.7157 15.944 91.4064 16.8027 91.8357 17.904V14.572H95.0557V30H93.6277C93.1051 30 92.6757 29.832 92.3397 29.496C92.0037 29.16 91.8357 28.7307 91.8357 28.208V26.64C91.4064 27.7413 90.7157 28.6093 89.7637 29.244C88.8117 29.8787 87.7011 30.196 86.4317 30.196ZM87.1597 27.424C87.9624 27.424 88.7184 27.228 89.4277 26.836C90.1371 26.444 90.7157 25.8653 91.1637 25.1C91.6117 24.316 91.8357 23.3733 91.8357 22.272C91.8357 21.152 91.6117 20.2187 91.1637 19.472C90.7157 18.7067 90.1371 18.128 89.4277 17.736C88.7184 17.344 87.9624 17.148 87.1597 17.148C86.3757 17.148 85.6197 17.344 84.8917 17.736C84.1824 18.128 83.6037 18.7067 83.1557 19.472C82.7077 20.2187 82.4837 21.152 82.4837 22.272C82.4837 23.3733 82.7077 24.316 83.1557 25.1C83.6037 25.8653 84.1824 26.444 84.8917 26.836C85.6197 27.228 86.3757 27.424 87.1597 27.424ZM98.9683 30V14.572H102.16V30H98.9683ZM101.236 22.216L102.16 17.96C102.534 16.8587 103.14 15.9907 103.98 15.356C104.839 14.7027 105.81 14.376 106.892 14.376V17.68C106.743 17.6427 106.594 17.624 106.444 17.624C106.314 17.6053 106.174 17.596 106.024 17.596C105.259 17.596 104.587 17.7733 104.008 18.128C103.43 18.464 102.972 18.9773 102.636 19.668C102.319 20.34 102.16 21.1893 102.16 22.216H101.236ZM115.962 30.196C114.506 30.196 113.19 29.8693 112.014 29.216C110.857 28.5627 109.933 27.6387 109.242 26.444C108.57 25.2493 108.234 23.8587 108.234 22.272C108.234 20.6667 108.58 19.276 109.27 18.1C109.98 16.924 110.932 16.0093 112.126 15.356C113.321 14.7027 114.646 14.376 116.102 14.376C117.577 14.376 118.902 14.7027 120.078 15.356C121.273 16.0093 122.216 16.924 122.906 18.1C123.616 19.276 123.97 20.6667 123.97 22.272C123.97 23.8587 123.606 25.2493 122.878 26.444C122.169 27.6387 121.208 28.5627 119.994 29.216C118.781 29.8693 117.437 30.196 115.962 30.196ZM115.962 27.424C116.765 27.424 117.521 27.2373 118.23 26.864C118.958 26.472 119.546 25.8933 119.994 25.128C120.461 24.3627 120.694 23.4107 120.694 22.272C120.694 21.1147 120.47 20.1627 120.022 19.416C119.574 18.6507 118.996 18.0813 118.286 17.708C117.596 17.3347 116.849 17.148 116.046 17.148C115.244 17.148 114.497 17.3347 113.806 17.708C113.116 18.0813 112.556 18.6507 112.126 19.416C111.697 20.1627 111.482 21.1147 111.482 22.272C111.482 23.4107 111.688 24.3627 112.098 25.128C112.509 25.8933 113.05 26.472 113.722 26.864C114.413 27.2373 115.16 27.424 115.962 27.424ZM133.811 30.196C132.355 30.196 131.039 29.8693 129.863 29.216C128.706 28.5627 127.782 27.6387 127.091 26.444C126.419 25.2493 126.083 23.8587 126.083 22.272C126.083 20.6667 126.429 19.276 127.119 18.1C127.829 16.924 128.781 16.0093 129.975 15.356C131.17 14.7027 132.495 14.376 133.951 14.376C135.426 14.376 136.751 14.7027 137.927 15.356C139.122 16.0093 140.065 16.924 140.755 18.1C141.465 19.276 141.819 20.6667 141.819 22.272C141.819 23.8587 141.455 25.2493 140.727 26.444C140.018 27.6387 139.057 28.5627 137.843 29.216C136.63 29.8693 135.286 30.196 133.811 30.196ZM133.811 27.424C134.614 27.424 135.37 27.2373 136.079 26.864C136.807 26.472 137.395 25.8933 137.843 25.128C138.31 24.3627 138.543 23.4107 138.543 22.272C138.543 21.1147 138.319 20.1627 137.871 19.416C137.423 18.6507 136.845 18.0813 136.135 17.708C135.445 17.3347 134.698 17.148 133.895 17.148C133.093 17.148 132.346 17.3347 131.655 17.708C130.965 18.0813 130.405 18.6507 129.975 19.416C129.546 20.1627 129.331 21.1147 129.331 22.272C129.331 23.4107 129.537 24.3627 129.947 25.128C130.358 25.8933 130.899 26.472 131.571 26.864C132.262 27.2373 133.009 27.424 133.811 27.424Z" fill="black"/>
<defs>
<linearGradient id="paint0_linear_1149_993" x1="19" y1="11.207" x2="19" y2="26.793" gradientUnits="userSpaceOnUse">
<stop stop-color="#3860D2"/>
<stop offset="1" stop-color="#00CC83"/>
</linearGradient>
<linearGradient id="paint1_linear_1149_993" x1="19" y1="0" x2="19" y2="38" gradientUnits="userSpaceOnUse">
<stop stop-color="#3860D2"/>
<stop offset="1" stop-color="#00CC83"/>
</linearGradient>
<clipPath id="clip0_1149_993">
<rect width="38" height="38" fill="white" transform="matrix(-1 0 0 1 38 0)"/>
</clipPath>
</defs>
</svg>
